<svg xmlns="http://www.w3.org/2000/svg" width="32" height="32" id="Face">
  <path  d="M16.35 1.006a8.836 8.836 0 0 0-.881.01v.002c-2.338.145-4.623 1.228-6.313 2.843-1.69 1.616-2.772 3.78-2.625 6.157.251 4.05 1.024 5.382.969 7.968-.084 3.911-2 11.907-2 11.907-.077.299.19.634.5.625h6c.284 0 .535-.281.5-.563l-1-7.937v-3.5a7.634 7.634 0 0 1-.75-1.313c-1.045-2.316-1.024-5.133.031-7.437l.156-.282h1.313l.344-.53L13 8.33l.406.625.344.531c.708 0 1.304.01 2 .032l.531-1.22.438-.968.468.938.625 1.25h.594l.469-.688.406-.594.407.563.53.719H21.095l.156.28c.886 1.965.961 4.215.406 6.188-.04.165-.09.335-.156.5-.003.01.003.023 0 .032a8.186 8.186 0 0 1-1 1.968V22.016l-1 7.937a.522.522 0 0 0 .5.563h6c.31.01.577-.326.5-.625 0 0-1.917-7.994-2-11.905-.027-1.268.22-3.178.469-4.783.124-.802.246-1.51.343-2.062.05-.277.095-.512.125-.688.03-.176.023-.248.032-.375a8.61 8.61 0 0 0 0-1.092c-.148-2.377-1.498-4.45-3.375-5.875-1.643-1.247-3.69-2.027-5.744-2.105zm.431 8.668-.187.437-.032.094-.156.313h-.343c-.987-.043-1.559-.032-2.563-.032H13.188L13 10.08l-.094.156-.125.25h-1.125c-.1.247-.174.492-.25.75-.08.268-.165.537-.219.813-.05.267-.067.51-.093.781v.031c-.025.271-.063.54-.063.813 0 .272.037.542.063.812.026.27.04.517.094.782a6.97 6.97 0 0 0 .5 1.53 6.28 6.28 0 0 0 .594 1.063 5.39 5.39 0 0 0 1.124 1.22c.41.321.856.563 1.313.718.152.052.313.092.469.125.31.067.62.103.937.094a4.014 4.014 0 0 0 1.438-.313 4.683 4.683 0 0 0 1.531-1.094c.195-.2.365-.392.531-.625.166-.233.333-.49.469-.75.135-.26.24-.53.343-.812a8.453 8.453 0 0 0 .47-3.688 8.467 8.467 0 0 0-.532-2.218h-.688l-.156-.22-.25-.343-.218.344-.157.219h-1.719l-.125-.282-.28-.562z"  font-family="Sans" font-weight="400" overflow="visible" style="line-height:normal;-inkscape-font-specification:Sans;text-indent:0;text-align:start;text-decoration-line:none;text-transform:none;block-progression:tb;marker:none" ></path>
</svg>
