<svg xmlns="http://www.w3.org/2000/svg" xml:space="preserve" width="64" height="64" id="Jacket">
  <g  >
    <path d="M38.119 15.273c-.217-.545-.945-.947-1.66-1.221.082 1.645-1.621 4.265-2.84 5.917 1.699-.903 3.414-2.528 4.113-3.298.401-.523.541-1.006.387-1.398zM11.557 52.117c-.031.021-.07.016-.105.029l-.402 1.85a.538.538 0 0 0 .303.596c.123.055 1.281.525 4.699.044a.528.528 0 0 0 .449-.594c0-.017-.145-1.246.387-2.046-.723-.355-3.016-1.275-5.331.121zM35.359 13.876c-.084-.177-.33-.271-.732-.271a.59.59 0 0 1-.107-.01c-.008-.002-.727-.145-1.998-.145-1.354 0-2.798.156-4.302.463a.672.672 0 0 0-.512.452c-.162.497-.117 2.103 3.762 6.239.004.002.012.002.02.002h.02c.064-.004.162-.02.33-.075 1.732-2.131 3.998-5.642 3.519-6.655zM24.319 15.655c-.193.635.559 1.438 1.221 2 .035.029 2.033 1.774 4.152 2.566-2.342-2.689-3.324-4.653-3.027-5.996-1.088.303-2.153.786-2.346 1.43z"  ></path>
    <path d="M31.145 31.672c-.432-2.971-.029-9.659-.006-10.021-.066-.004-.133-.006-.199-.016-.67-.037-1.322-.11-1.949-.233.072.541.064 1.313-.223 2.356-.357 1.297-.025 2.263.246 3.044.109.315.213.618.26.908.098.634.049 1.36.02 1.84-.012.195-.029.352-.021.435a.524.524 0 0 1-.42.616.438.438 0 0 1-.102.012.548.548 0 0 1-.527-.438c-.031-.149-.02-.331.004-.694.033-.459.074-1.088-.008-1.606-.031-.192-.115-.44-.213-.728-.303-.865-.711-2.056-.268-3.671.363-1.312.201-2.058.105-2.333-4.789-1.271-8.059-4.403-8.227-4.564v-.002a5.49 5.49 0 0 0-1.93 1.393c-1.24 1.41-1.752 3.449-1.523 6.063-.115.827-.764 5.693-.215 7.624-.514.712-1.803 2.698-1.266 4.069-.299.707-1.082 2.707-.904 3.949.057.369-.146.821-.422 1.453-.477 1.094-1.197 2.74-1.197 5.491 0 1.344-.352 1.856-.662 2.312-.422.609-.66 1.106-.221 2.133 3.197-1.73 6.258.067 6.393.145a.53.53 0 0 1 .121.109c.061-.032.131-.06.17-.115.086-.121.857-1.293 1.617-6.21.227-1.485.5-2.673.766-3.599a211.771 211.771 0 0 1-.553 7.08c.037.008.07.012.104.026.066.033 4.387 2.162 11.262 2.375-.141-4.229-.27-10.604.168-12.034.578-1.88.254-4.15-.162-7.026l-.018-.143zm-4.551 7.051c-.211.642-2.154 6.288-4.426 7.51a.539.539 0 0 1-.721-.219.532.532 0 0 1 .217-.721c1.611-.865 3.375-5.281 3.92-6.908a.537.537 0 0 1 .674-.334c.28.092.43.39.336.672zm-.504-3.619h-.008c-4.018-.068-6.496-8.933-6.77-9.941a.533.533 0 1 1 1.031-.275c.674 2.53 3.027 9.108 5.756 9.153a.531.531 0 0 1-.009 1.063z"  ></path>
    <path d="M26.063 19.417c-.701-.503-1.166-.909-1.219-.952-1.313-1.109-1.838-2.162-1.551-3.117.576-1.91 4.232-2.419 4.732-2.48 0 0 .002-.002.006-.002a22.586 22.586 0 0 1 4.49-.477c1.199 0 1.949.118 2.158.152.194.004.356.035.514.069.018.002.031-.004.047 0 .326.055 3.199.574 3.869 2.272.301.767.113 1.598-.562 2.475-.09.1-.979 1.065-2.215 2.06 2.151-.789 4.449-2.046 5.562-4.02.004-.004.008-.006.01-.01a2.741 2.741 0 0 0-.326-1.097c-.65-1.213-2.152-2.145-4.436-2.751-.213-.076-5.383-1.77-11.792.396-2.662.896-4.119 1.772-4.582 2.753-.27.566-.176 1.062-.047 1.447.762.649 2.697 2.187 5.342 3.282z"  ></path>
    <path d="M51.146 45.075c.006-.869-.06-5.74-2.084-8.949.008-.655-.049-2.965-1.109-4.371-.148-.839-.943-5.596-.727-8.865.008-.058.746-5.389-4.367-7.076-.012.035-.019.071-.035.106-1.512 2.684-4.799 4.159-7.432 4.941-.313 1.077-.851 3.581-.242 4.795.707 1.419.555 2.382.422 3.229a6.3 6.3 0 0 0-.1.923.534.534 0 0 1-.535.521h-.013a.531.531 0 0 1-.521-.545c.009-.386.062-.73.113-1.062.125-.791.234-1.472-.319-2.591-.701-1.397-.291-3.716.006-4.952-.603.149-1.138.261-1.562.338-.152.038-.304.07-.456.097.004.031.016.06.014.089-.004.073-.418 6.938-.004 9.82l.018.134c.436 3.012.773 5.39.127 7.497-.371 1.201-.268 7.248-.119 11.748 3.482.002 7.55-.5 12.019-1.981.02-.007.041-.005.061-.007-.082-.751-.246-2.285-.457-4.159.146.491.389 1.058.816 1.759.539.883.521 1.27.502 1.754-.029.659-.049 1.414 1.063 3.096.842-.531 3.039-1.596 6.027-.838.037-.141.068-.284.121-.428a.844.844 0 0 0 .109-.135c.272-.43.325-1.347-1.336-4.888zm-9.531.939a.533.533 0 0 1-.723.219c-2.269-1.222-4.209-6.868-4.427-7.51a.532.532 0 0 1 .341-.672.54.54 0 0 1 .676.334c.543 1.627 2.307 6.045 3.918 6.908a.532.532 0 0 1 .215.721zm2.135-20.468c-.27 1.009-2.752 9.874-6.766 9.942h-.01a.536.536 0 0 1-.533-.524.53.53 0 0 1 .521-.542c2.729-.048 5.082-6.623 5.756-9.155a.533.533 0 0 1 .65-.375c.29.076.456.365.382.654z"  ></path>
    <path d="M32.262 52c.027.719.053 1.377.078 1.941 3.191-.086 7.025-.527 11.604-1.59a.535.535 0 0 0 .414-.521v-1.834c-4.51 1.471-8.598 1.99-12.096 2.004zM19.596 49.533l-.289 1.438a.538.538 0 0 0 .221.541c.201.141 3.711 2.461 11.748 2.442-.021-.479-.053-1.147-.08-1.976-6.444-.167-10.686-2.005-11.6-2.445zM52.117 51.59c-2.641-.714-4.588.219-5.301.661a3.43 3.43 0 0 1 .418 2.015.54.54 0 0 0 .445.58c.053.01.682.107 1.508.107.924 0 2.102-.122 3.012-.631a.532.532 0 0 0 .238-.656c-.001-.016-.337-.941-.32-2.076z"  ></path>
  </g>
</svg>
