<svg xmlns="http://www.w3.org/2000/svg" xml:space="preserve" enable-background="new 0 0 512 512" viewBox="0 0 512 512" id="mask">
  <g id="_x33_7_x2C__mask_x2C__party_mask_x2C__masquerade_x2C__eye_mask_x2C__costume_x2C__birthday_and_party"  >
    <g  >
      <path d="M164.763 263.065c-5.118-2.077-10.95.386-13.028 5.503-2.077 5.117.386 10.95 5.503 13.028 21.03 8.539 39.481 24.028 51.512 44.223 2.826 4.745 8.965 6.3 13.709 3.473 4.744-2.826 6.3-8.964 3.473-13.709C211.625 291.566 189.757 273.214 164.763 263.065zM347.234 263.067c-24.908 10.124-46.804 28.406-61.165 52.516-2.827 4.745-1.271 10.883 3.473 13.709 4.753 2.832 10.888 1.264 13.709-3.473 12.181-20.447 30.719-35.772 51.515-44.225 5.116-2.079 7.578-7.913 5.498-13.029C358.185 263.449 352.353 260.983 347.234 263.067z"  ></path>
      <path d="M503.797,241.1c-4.263-1.245-8.845,0.479-11.231,4.229c-3.909,6.138-9.664,9.617-15.269,11.575
			c15.867-31.63,22.268-72.753,19.037-122.609c-2.848-43.955-12.307-77.976-12.707-79.402c-1.42-5.047-6.498-8.143-11.63-7.09
			c-5.136,1.05-8.589,5.887-7.914,11.085c1.989,15.309-2.457,26.207-8.127,33.639c0.824-31.689-12.902-53.115-26.085-66.298
			c-17.492-17.492-37.526-24.161-38.37-24.436c-3.822-1.248-8.012-0.079-10.646,2.953c-2.635,3.033-3.196,7.354-1.43,10.962
			c0.243,0.497,24.142,50.134,7.886,87.845c-7.625,17.688-23.331,30.337-46.682,37.599c-29.005,9.023-51.016,23.958-65.621,44.468
			l-10.041-20.336c-1.686-3.413-5.161-5.573-8.967-5.573s-7.281,2.16-8.967,5.573l-12.663,25.647l-28.299,4.114
			c-3.767,0.547-6.896,3.185-8.072,6.805c-1.176,3.619-0.195,7.593,2.529,10.25l9.535,9.298
			c-16.863-5.345-37.668-10.206-60.524-6.359c-34.615,5.832-58.248,23.413-81.201,38.671c-16.573,11.008-38.344,6.915-49.101-8.68
			c-2.483-3.607-7.027-5.179-11.206-3.879C3.85,242.451,1,246.321,1,250.7v45.56c0,82.628,58.806,153.716,140.326,168.931
			l49.99,9.33c19.139,3.571,36.592,12.651,50.477,26.264l7.21,7.061c3.889,3.807,10.104,3.808,13.994,0l7.214-7.064
			c13.881-13.608,31.334-22.688,50.476-26.26l49.988-9.33C452.224,449.97,511,378.854,511,296.26V250.7
			C511,246.255,508.065,242.343,503.797,241.1z M68.938,407.001c9.44-8.645,17.505-18.302,24.123-28.887
			c15.863,19.967,40.668,32.956,68.498,32.559c1.509,13.085,4.167,26.273,7.961,39.436l-24.525-4.577
			C115.562,440.037,89.489,426.3,68.938,407.001z M367.006,445.53l-24.527,4.578c3.79-13.148,6.447-26.323,7.957-39.395
			c26.405,0.297,51.886-11.642,68.504-32.598c6.619,10.585,14.684,20.242,24.124,28.886
			C422.527,426.292,396.463,440.032,367.006,445.53z M491,296.26c0,36.075-12.707,69.71-34.292,96.119
			c-10.832-9.895-19.548-21.312-26.003-34.074c6.54-15.413,8.517-32.688,5.524-49.198c-0.583-3.215-2.698-5.941-5.667-7.305
			c-29.331-13.467-63.369-9.552-88.833,10.218c-25.471,19.765-37.713,51.763-31.948,83.508c0.583,3.209,2.694,5.933,5.658,7.297
			c4.974,2.289,10.048,4.042,15.161,5.326c-1.743,15.262-5.215,30.714-10.362,46.108c-2.085,0.698-34.941,3.723-64.025,32.236
			L256,486.704l-0.209-0.205c-29.179-28.606-62.123-31.602-64.03-32.241c-5.148-15.399-8.621-30.855-10.363-46.121
			c5.212-1.292,10.285-3.068,15.162-5.313c2.964-1.364,5.075-4.088,5.658-7.297c5.765-31.745-6.478-63.743-31.946-83.506
			c-25.465-19.771-59.506-23.687-88.835-10.22c-2.969,1.363-5.084,4.09-5.667,7.305c-3.007,16.593-1.05,33.741,5.521,49.205
			c-6.455,12.759-15.169,24.174-25.999,34.066C33.719,365.989,21,332.369,21,296.26v-23.318c17.733,9.905,40.255,9.48,58.405-2.573
			c21.39-14.22,43.306-30.527,73.455-35.606c25.048-4.216,47.971,4.561,65.86,10.642c-1.246,7.267-2.536,14.799-2.547,14.858
			c-0.643,3.751,0.899,7.542,3.979,9.778c3.079,2.238,7.161,2.535,10.53,0.762L256,257.497l25.317,13.305
			c3.367,1.771,7.451,1.476,10.53-0.762c3.079-2.237,4.621-6.028,3.979-9.779l-4.832-28.19l20.478-19.971
			c2.725-2.657,3.705-6.631,2.529-10.25c-1.177-3.619-4.306-6.258-8.072-6.805l-11.651-1.694
			c12.057-14.918,29.568-26.032,52.292-33.102c29.219-9.086,49.118-25.529,59.146-48.871c11.684-27.195,7.139-57.734,1.177-78.755
			c17.1,12.844,36.469,37.486,26.184,80.343c-0.871,3.63,0.352,7.443,3.173,9.89c2.819,2.444,6.769,3.117,10.238,1.739
			c7.626-3.025,18.31-10.064,26.42-21.385c6.501,44.771,9.577,114.655-22.731,160.172c-4.299,6.055-0.717,14.494,6.573,15.662
			c0.244,0.042,17.835,2.18,34.251-6.243V296.26z"  ></path>
      <path d="M256 310.7c-5.522 0-10 4.478-10 10v10c0 5.522 4.478 10 10 10s10-4.478 10-10v-10C266 315.178 261.522 310.7 256 310.7zM256 360.7c-5.522 0-10 4.478-10 10v10c0 5.522 4.478 10 10 10s10-4.478 10-10v-10C266 365.178 261.522 360.7 256 360.7zM256 410.7c-5.522 0-10 4.478-10 10v10c0 5.522 4.478 10 10 10s10-4.478 10-10v-10C266 415.178 261.522 410.7 256 410.7zM241.606 230.273c0 .002 0 .003-.001.005C241.606 230.275 241.606 230.273 241.606 230.273z"  ></path>
    </g>
  </g>
</svg>
