<svg xmlns="http://www.w3.org/2000/svg" viewBox="0 0 100 100" id="Shoes">
  <path d="m76.6 43.2-16.7-7.5-4.5-2-.1-.1c-.1 0-.2-.1-.3-.1l-4.5-2c-1.2-.5-2.6-.4-3.7.3S45 33.7 45 35.1c0 1.1-1 2-2.2 2H29.3c-1.2 0-2.2-1-2.2-2.2 0-2.5-1.7-4.7-4.1-5.1-1.7-.3-3.3.2-4.6 1.4-1 1-1.5 2.2-1.5 3.6V65.9c0 2.5 2 4.5 4.5 4.5h57c2.5 0 4.5-2 4.5-4.5V53c.1-4.2-2.4-8.1-6.3-9.8zM19 34.7c0-.8.3-1.6.9-2.2.7-.7 1.7-1 2.8-.8 1.4.3 2.5 1.6 2.5 3.2 0 2.3 1.9 4.2 4.2 4.2h13.3c2.3 0 4.2-1.8 4.2-4 0-.7.3-1.3.9-1.6.6-.4 1.2-.4 1.8-.1l3.7 1.6-2 3.7c-.3.5-.1 1.1.4 1.4.2.1.3.1.5.1.4 0 .7-.2.9-.5l2.1-3.8 2.8 1.3-2 3.7c-.3.5-.1 1.1.4 1.4.2.1.3.1.5.1.4 0 .7-.2.9-.5l2.1-3.8 3 1.3-2.1 3.9c-.3.5-.1 1.1.4 1.4.2.1.3.1.5.1.4 0 .7-.2.9-.5l2.2-4 4.1 1.8c-3.5 6.8-4.1 13.3-.2 19.2H32.8c0-.5.1-.9.1-1.4 0-7.9-6.1-14.3-13.9-14.8V34.7zm62 31.2H19V63h62v2.9z"  ></path>
</svg>
