<svg xmlns="http://www.w3.org/2000/svg" xml:space="preserve" viewBox="0 0 512 512" enable-background="new 0 0 512 512" id="wingsuit">
  <g id="_x32_3_x2C__wingsuit_x2C__flying_suit_x2C__sports_x2C__competition_x2C__extreme_sport"  >
    <g  >
      <path d="M470.473,112.196C466.661,108.2,461.522,106,456,106H284.858c10.404-8.344,17.083-21.15,17.083-35.494
			c-0.023-6.704,0.003-10.544,0.005-13.057h0.503c2.762,0,5-2.238,5-5C307.449,24.08,284.369,1,256,1s-51.449,23.08-51.449,51.449
			c0,2.762,2.238,5,5,5h0.502c0.001,2.521,0.028,6.362,0.005,13.057c0,14.344,6.679,27.15,17.083,35.494H56.424
			c-18.039,0-26.991,21.126-14.896,33.804c8.1,8.492,17.923,5.65,22.579,6.196c5.056,4.656,24.555,24.256,42.552,64.472
			c19.198,42.905,40.53,118.657,33.248,235.999l-7.844,25.344l-6.941,0.926C108.519,474.953,96,489.251,96,506c0,2.762,2.238,5,5,5
			h62.4c9.704,0,17.6-7.896,17.6-17.6v-21.367l8.535-19.737c41.751-21.854,91.179-21.854,132.93,0L331,472.034V493.4
			c0,9.704,7.896,17.6,17.6,17.6H411c2.762,0,5-2.238,5-5c0-16.749-12.519-31.047-29.119-33.26l-6.942-0.926l-7.844-25.344
			c-7.282-117.342,14.05-193.094,33.248-235.999c18.001-40.226,37.506-59.826,42.551-64.472h7.684
			C473.642,146,482.555,124.86,470.473,112.196z M256,11c21.163,0,38.673,15.943,41.149,36.449c-19.297,0-62.972,0-82.299,0
			C217.327,26.943,234.837,11,256,11z M220.059,70.506V57.449h71.883v13.057c0,19.571-15.923,35.494-35.495,35.494h-0.893
			C235.982,106,220.059,90.077,220.059,70.506z M367.225,308.669c-17.676-13.036-34.222-27.579-49.295-43.327
			c-3.435-22.498-2.14-45.252,3.214-66.798c15.634,24.951,33.883,47.993,54.374,68.656
			C372.13,280.794,369.381,294.652,367.225,308.669z M136.483,267.199c20.49-20.663,38.74-43.704,54.373-68.655
			c5.349,21.528,6.652,44.282,3.214,66.797c-15.072,15.748-31.618,30.292-49.295,43.327
			C142.619,294.652,139.871,280.794,136.483,267.199z M205.425,226h101.15c-0.521,6.636-0.669,13.314-0.45,20H205.876
			C206.095,239.312,205.946,232.634,205.425,226z M307.643,216H204.358c-0.906-6.744-2.187-13.422-3.826-20h110.936
			C309.828,202.58,308.549,209.259,307.643,216z M112.193,198.669C99.408,172.112,86.441,155.235,78.121,146h64.854
			C134.072,164.354,123.757,182.012,112.193,198.669z M171,493.4c0,4.19-3.409,7.6-7.6,7.6h-56.861
			c2.078-9.497,9.943-17.021,19.902-18.348c10.606-1.413,33.959-4.527,44.559-5.941V493.4z M405.461,501H348.6
			c-4.19,0-7.6-3.409-7.6-7.6v-16.689c32.479,4.331,13.382,1.784,44.56,5.941C395.518,483.979,403.383,491.503,405.461,501z
			 M339.466,466.418l-78.877-182.402c-1.779-4.105-7.512-3.862-9.178,0l-78.877,182.402l-29.554,3.941
			C202.32,278.646,203.056,280.762,205.272,256h101.457c2.2,24.591,1.599,18.277,62.291,214.359L339.466,466.418z M399.807,198.669
			c-11.563-16.657-21.879-34.315-30.782-52.669h64.854C425.559,155.235,412.592,172.112,399.807,198.669z M455.576,136h-97.67
			c-12.829,0-24.527,7.044-30.531,18.382c-5.421,10.24-9.789,20.899-13.115,31.618H197.739
			c-3.244-10.491-7.636-21.269-13.114-31.618C178.621,143.044,166.923,136,154.094,136H56c-5.674,0-10.259-4.717-9.988-10.49
			c0.247-5.244,4.918-9.51,10.412-9.51c17.095,0,382.531,0,399.576,0c5.694,0,10.258,4.736,9.988,10.49
			C465.741,131.733,461.071,136,455.576,136z"  ></path>
    </g>
  </g>
</svg>
